<?xml version="1.0" encoding="UTF-8"?>
<svg version="1.1" xmlns="http://www.w3.org/2000/svg" width="360" height="360">
<path d="M0 0 C0.66 0 1.32 0 2 0 C15.39073991 40.17221973 -5.79266638 105.60681088 -23.875 141.9765625 C-35.55532172 164.55778597 -51.58808712 183.90149743 -72 199 C-73.12921875 199.89332031 -73.12921875 199.89332031 -74.28125 200.8046875 C-76 202 -76 202 -78 202 C-78.33 202.66 -78.66 203.32 -79 204 C-117.72394995 227.59881653 -164.78679618 226.2490707 -207.42578125 216.41015625 C-213.82771756 214.85250479 -220.12725025 212.93751336 -226.35644531 210.79174805 C-232.59988762 208.74490281 -237.21313979 208.69498971 -243.5390625 210.875 C-251.99009194 215.43285857 -256.10306175 222.5918256 -259.12890625 231.53125 C-261.4959334 240.95690072 -262.43315842 250.76300159 -263.48828125 260.41015625 C-264.47182254 268.95413667 -265.67348911 274.76625887 -271.0625 281.625 C-275.77851725 283.83249744 -280.10729362 282.26816207 -285 281 C-286.76675142 275.66455149 -287.3537497 270.98201295 -287.3125 265.375 C-287.30686035 264.55233643 -287.3012207 263.72967285 -287.29541016 262.88208008 C-286.84893236 239.44199593 -281.40949642 216.48628204 -270 196 C-269.26136719 194.54787109 -269.26136719 194.54787109 -268.5078125 193.06640625 C-262.30207917 180.98801567 -253.72157948 170.33915731 -245 160 C-244.39800781 159.26265625 -243.79601562 158.5253125 -243.17578125 157.765625 C-241.83071426 156.1372146 -240.42247172 154.56124945 -239 153 C-238.34 153 -237.68 153 -237 153 C-236.34 151.68 -235.68 150.36 -235 149 C-234.34 149 -233.68 149 -233 149 C-232.60941406 148.10667969 -232.60941406 148.10667969 -232.2109375 147.1953125 C-230.91233375 144.84106957 -229.67520844 143.59648303 -227.625 141.875 C-226.903125 141.2665625 -226.18125 140.658125 -225.4375 140.03125 C-224.2309375 139.02578125 -224.2309375 139.02578125 -223 138 C-222.154375 137.2678125 -221.30875 136.535625 -220.4375 135.78125 C-185.705066 106.06572314 -143.96572724 85.00471762 -101 70 C-105.20944985 70.95347223 -109.41734656 71.91363391 -113.625 72.875 C-114.81480469 73.14441406 -116.00460938 73.41382812 -117.23046875 73.69140625 C-118.38417969 73.95566406 -119.53789062 74.21992187 -120.7265625 74.4921875 C-121.78439941 74.73308105 -122.84223633 74.97397461 -123.93212891 75.22216797 C-127.01711556 76.0043395 -129.98317174 76.98990681 -133 78 C-134.85629811 78.46698396 -136.71720311 78.91599354 -138.58203125 79.34765625 C-145.11813972 80.95519381 -151.37400662 83.11881052 -157.6875 85.4375 C-158.75033203 85.81970703 -159.81316406 86.20191406 -160.90820312 86.59570312 C-204.13318269 102.30175677 -243.24640142 128.84276924 -269.40966797 167.05908203 C-270.56267546 168.73698807 -271.77609945 170.37308194 -273 172 C-273.66 172 -274.32 172 -275 172 C-277.28362395 152.99037359 -278.55566806 135.08976391 -276 116 C-275.87496094 114.81921875 -275.74992187 113.6384375 -275.62109375 112.421875 C-272.87910112 90.83229094 -260.26738899 70.04704899 -244 56 C-239.80868746 53.05475335 -235.47856507 50.48189472 -231 48 C-230.20207031 47.53980469 -229.40414062 47.07960937 -228.58203125 46.60546875 C-208.87050959 35.91849917 -185.30811285 32.47109006 -163.30859375 30.44921875 C-162.62844522 30.38588348 -161.9482967 30.32254822 -161.24753761 30.2572937 C-144.03110442 28.67094803 -126.78382351 28.04228402 -109.51092529 27.42181396 C-52.85453379 27.65187379 -52.85453379 27.65187379 -3.875 4.0625 C-3.25625 3.381875 -2.6375 2.70125 -2 2 C-1.34 2 -0.68 2 0 2 C0 1.34 0 0.68 0 0 Z " fill="#69BE52" transform="translate(322,39)"/>
<path d="M0 0 C0.33 0 0.66 0 1 0 C-1.96958638 44.98147728 -23.0502846 92.79263148 -56 124 C-60.49194141 127.89397264 -65.2227838 131.4663375 -70 135 C-71.12921875 135.89332031 -71.12921875 135.89332031 -72.28125 136.8046875 C-74 138 -74 138 -76 138 C-76.33 138.66 -76.66 139.32 -77 140 C-115.72394995 163.59881653 -162.78679618 162.2490707 -205.42578125 152.41015625 C-211.82771756 150.85250479 -218.12725025 148.93751336 -224.35644531 146.79174805 C-230.59988762 144.74490281 -235.21313979 144.69498971 -241.5390625 146.875 C-249.99009194 151.43285857 -254.10306175 158.5918256 -257.12890625 167.53125 C-259.4959334 176.95690072 -260.43315842 186.76300159 -261.48828125 196.41015625 C-262.47182254 204.95413667 -263.67348911 210.76625887 -269.0625 217.625 C-273.77851725 219.83249744 -278.10729362 218.26816207 -283 217 C-284.76675142 211.66455149 -285.3537497 206.98201295 -285.3125 201.375 C-285.30686035 200.55233643 -285.3012207 199.72967285 -285.29541016 198.88208008 C-284.84893236 175.44199593 -279.40949642 152.48628204 -268 132 C-267.26136719 130.54787109 -267.26136719 130.54787109 -266.5078125 129.06640625 C-260.30207917 116.98801567 -251.72157948 106.33915731 -243 96 C-242.39800781 95.26265625 -241.79601562 94.5253125 -241.17578125 93.765625 C-239.83071426 92.1372146 -238.42247172 90.56124945 -237 89 C-236.34 89 -235.68 89 -235 89 C-234.34 87.68 -233.68 86.36 -233 85 C-232.34 85 -231.68 85 -231 85 C-230.60941406 84.10667969 -230.60941406 84.10667969 -230.2109375 83.1953125 C-228.91233375 80.84106957 -227.67520844 79.59648303 -225.625 77.875 C-224.91085938 77.27171875 -224.19671875 76.6684375 -223.4609375 76.046875 C-222.64882812 75.37140625 -221.83671875 74.6959375 -221 74 C-220.08476562 73.22140625 -219.16953125 72.4428125 -218.2265625 71.640625 C-215.17598029 69.06244266 -212.09671676 66.52230281 -209 64 C-208.46197754 63.5570459 -207.92395508 63.1140918 -207.36962891 62.65771484 C-205.78032043 61.35858242 -204.1748129 60.08291394 -202.5625 58.8125 C-201.61503906 58.05582031 -200.66757813 57.29914063 -199.69140625 56.51953125 C-197 55 -197 55 -194.328125 55.15625 C-188.24166738 57.36208028 -183.12140511 62.11229369 -178 66 C-177.28070313 66.49371094 -176.56140625 66.98742187 -175.8203125 67.49609375 C-174 69 -174 69 -173 72 C-171.68 72 -170.36 72 -169 72 C-166.548356 73.90683422 -166.00671686 74.97984943 -165 78 C-163.68 78 -162.36 78 -161 78 C-159.28769752 79.61974559 -157.62836738 81.2958946 -156 83 C-154.33250519 84.29149108 -152.61651487 85.48666719 -150.8828125 86.6875 C-147.52001172 89.03169308 -144.27218533 91.53172968 -141 94 C-139.66697855 95.00041571 -138.33364645 96.00041763 -137 97 C-127.66666667 104 -118.33333333 111 -109 118 C-108.278125 118.495 -107.55625 118.99 -106.8125 119.5 C-105 121 -105 121 -104 124 C-96.1600615 123.75111306 -92.18629354 121.63028983 -86 117 C-84.36353775 115.87092127 -82.72704934 114.74188025 -81.09008789 113.61352539 C-41.40301095 85.96175485 -14.94181663 45.59416071 0 0 Z " fill="#01AC50" transform="translate(320,103)"/>
<path d="M0 0 C-1 3 -1 3 -3 4 C0.41310892 7.61388003 3.83606233 10.30568739 8 13 C10.69300588 14.96516645 13.34388676 16.98536316 16 19 C17.3327108 20.00082951 18.66603918 21.00083719 20 22 C52 46 52 46 53.98828125 47.4921875 C55.35943559 48.51988765 56.73188648 49.54585968 58.10546875 50.5703125 C61.788619 53.32058229 65.4288632 56.10448368 69 59 C69.886875 59.70125 70.77375 60.4025 71.6875 61.125 C74 63 74 63 76 65 C62.50186755 79.91102108 48.67737142 92.68422007 32 104 C31.20722656 104.56847656 30.41445312 105.13695312 29.59765625 105.72265625 C25.46106343 108.63410178 22.23118658 110.87544794 17 111 C13.85886997 109.95295666 12.79102583 108.76954191 10.56640625 106.4453125 C8.76512553 104.7832829 6.87150675 103.51659431 4.8125 102.1875 C0.53611409 99.42125697 -3.38008628 96.35300433 -7.328125 93.140625 C-11.18526047 90.05040536 -15.15275767 87.11457166 -19.1171875 84.1640625 C-21.67017083 82.24759534 -24.18391157 80.29269015 -26.6875 78.3125 C-30.34052813 75.44841987 -34.12944181 72.87327989 -38.01171875 70.33203125 C-40.46205016 68.69045362 -42.72050634 66.87035378 -45 65 C-46.22600517 64.07910924 -47.45554834 63.16292036 -48.6875 62.25 C-51.78598392 59.94064307 -54.80895144 57.55644407 -57.8125 55.125 C-66.18284497 47.22036382 -66.18284497 47.22036382 -76 43 C-76.495 41.515 -76.495 41.515 -77 40 C-19.38938053 0 -19.38938053 0 0 0 Z " fill="#34B450" transform="translate(202,117)"/>
<path d="M0 0 C1.625 2.4375 1.625 2.4375 3 5 C3.99 5.33 4.98 5.66 6 6 C7.66666667 7.66666667 9.33333333 9.33333333 11 11 C11.66 11 12.32 11 13 11 C14.66666667 12.66666667 16.33333333 14.33333333 18 16 C19.485 16.495 19.485 16.495 21 17 C22.66666667 18.66666667 24.33333333 20.33333333 26 22 C27.485 22.495 27.485 22.495 29 23 C30.66666667 24.66666667 32.33333333 26.33333333 34 28 C34.99 28.33 35.98 28.66 37 29 C38.66666667 30.66666667 40.33333333 32.33333333 42 34 C42.99 34.33 43.98 34.66 45 35 C46.68816933 36.64488294 48.35353315 38.31337542 50 40 C51.31175986 41.02813611 52.6369893 42.04084432 54 43 C52.68128906 43.35964844 52.68128906 43.35964844 51.3359375 43.7265625 C45.37634587 45.43144316 39.50701725 47.42283376 33.625 49.375 C32.44421875 49.76171875 31.2634375 50.1484375 30.046875 50.546875 C23.51360133 52.71493241 17.23827842 55.10051848 11 58 C9.44962848 58.67322677 7.89748469 59.34238433 6.34375 60.0078125 C-30.08566303 75.83061342 -61.87698057 100.14590477 -84.40966797 133.05908203 C-85.56267546 134.73698807 -86.77609945 136.37308194 -88 138 C-88.66 138 -89.32 138 -90 138 C-92.28362395 118.99037359 -93.55566806 101.08976391 -91 82 C-90.87496094 80.81921875 -90.74992187 79.6384375 -90.62109375 78.421875 C-87.87910112 56.83229094 -75.26738899 36.04704899 -59 22 C-54.80868746 19.05475335 -50.47856507 16.48189472 -46 14 C-44.80310547 13.30970703 -44.80310547 13.30970703 -43.58203125 12.60546875 C-32.03290426 6.34389388 -13.30292438 -1.31872468 0 0 Z " fill="#4AB751" transform="translate(137,73)"/>
<path d="M0 0 C0.33 0 0.66 0 1 0 C-1.96958638 44.98147728 -23.0502846 92.79263148 -56 124 C-60.49194141 127.89397264 -65.2227838 131.4663375 -70 135 C-71.12921875 135.89332031 -71.12921875 135.89332031 -72.28125 136.8046875 C-74 138 -74 138 -76 138 C-76.33 138.66 -76.66 139.32 -77 140 C-115.72394995 163.59881653 -162.78679618 162.2490707 -205.42578125 152.41015625 C-211.82771756 150.85250479 -218.12725025 148.93751336 -224.35644531 146.79174805 C-230.59988762 144.74490281 -235.21313979 144.69498971 -241.5390625 146.875 C-249.99009194 151.43285857 -254.10306175 158.5918256 -257.12890625 167.53125 C-259.50095537 176.97689851 -260.39058244 186.78739253 -261.5234375 196.4453125 C-262.96681261 208.34724168 -262.96681261 208.34724168 -266 214 C-267.80078125 213.828125 -267.80078125 213.828125 -270 213 C-271.66796875 210.671875 -271.66796875 210.671875 -273.1875 207.75 C-273.69667969 206.79609375 -274.20585937 205.8421875 -274.73046875 204.859375 C-279.84373851 193.34271819 -277.23260282 179.38804538 -273 168 C-269.4717016 159.3632805 -265.48125746 150.57703238 -260 143 C-259.34 143 -258.68 143 -258 143 C-258 142.01 -258 141.02 -258 140 C-257.34 140 -256.68 140 -256 140 C-255.67 138.68 -255.34 137.36 -255 136 C-254.34 136 -253.68 136 -253 136 C-252.75507813 135.26394531 -252.51015625 134.52789062 -252.2578125 133.76953125 C-250.86372322 130.69993716 -249.3060804 129.00094747 -246.875 126.6875 C-246.15054688 125.99011719 -245.42609375 125.29273438 -244.6796875 124.57421875 C-244.12539062 124.05472656 -243.57109375 123.53523438 -243 123 C-242.4423999 123.24645264 -241.8847998 123.49290527 -241.31030273 123.74682617 C-199.53788963 142.13355346 -157.23415674 148.28073255 -113.61474609 131.36987305 C-64.97767207 111.64185751 -28.82234304 69.85395025 -8.05371094 22.53808594 C-4.99301196 15.16574429 -2.4846447 7.58176148 0 0 Z " fill="#0C6C3C" transform="translate(320,103)"/>
<path d="M0 0 C-1 3 -1 3 -3 4 C0.41310892 7.61388003 3.83606233 10.30568739 8 13 C10.69300588 14.96516645 13.34388676 16.98536316 16 19 C17.3327108 20.00082951 18.66603918 21.00083719 20 22 C52 46 52 46 53.98828125 47.4921875 C55.35943559 48.51988765 56.73188648 49.54585968 58.10546875 50.5703125 C61.788619 53.32058229 65.4288632 56.10448368 69 59 C69.886875 59.70125 70.77375 60.4025 71.6875 61.125 C74 63 74 63 76 65 C57.80748104 85.09678263 57.80748104 85.09678263 50 91 C49.34 91 48.68 91 48 91 C47.7414624 90.40106934 47.4829248 89.80213867 47.21655273 89.18505859 C45.89268954 86.80725895 44.68425283 85.68348703 42.53515625 84.0390625 C41.82770264 83.49266113 41.12024902 82.94625977 40.39135742 82.38330078 C39.62283447 81.80306152 38.85431152 81.22282227 38.0625 80.625 C37.25981689 80.00995605 36.45713379 79.39491211 35.63012695 78.76123047 C29.25633576 73.8977547 22.80566683 69.13880378 16.3359375 64.40405273 C8.39415304 58.58478154 0.5750368 52.60878028 -7.24609375 46.62890625 C-10.98191886 43.77296144 -14.73271885 40.93929304 -18.5 38.125 C-23.76867116 34.18863649 -28.98189022 30.18314773 -34.1875 26.1640625 C-35.115625 25.44992188 -36.04375 24.73578125 -37 24 C-37.73734375 23.40316406 -38.4746875 22.80632812 -39.234375 22.19140625 C-40.96220999 20.73939482 -40.96220999 20.73939482 -43.25 21.3125 C-44.11625 21.6528125 -44.11625 21.6528125 -45 22 C-45 21.34 -45 20.68 -45 20 C-19.65411802 7.04206034 -19.65411802 7.04206034 -9 2.6875 C-8.307854 2.40447021 -7.61570801 2.12144043 -6.90258789 1.82983398 C-2.29519007 0 -2.29519007 0 0 0 Z " fill="#4AB751" transform="translate(202,117)"/>
<path d="M0 0 C4.08238856 1.73192242 7.57093218 4.17185072 11.0625 6.875 C11.7225 7.37 12.3825 7.865 13.0625 8.375 C13.7225 8.87 14.3825 9.365 15.0625 9.875 C15.784375 10.37 16.50625 10.865 17.25 11.375 C19.0625 12.875 19.0625 12.875 20.0625 15.875 C22.4055809 16.99585312 22.4055809 16.99585312 25.0625 17.875 C28.90134195 19.43452954 31.15613568 21.96863568 34.0625 24.875 C35.0525 25.205 36.0425 25.535 37.0625 25.875 C38.72916667 27.54166667 40.39583333 29.20833333 42.0625 30.875 C43.5475 31.37 43.5475 31.37 45.0625 31.875 C45.54296875 34.0234375 45.54296875 34.0234375 45.0625 36.875 C42.76770766 39.13012927 40.07460423 40.76701256 37.375 42.5 C35.79898341 43.56312729 34.22609318 44.63090286 32.65625 45.703125 C31.87378906 46.23615234 31.09132812 46.76917969 30.28515625 47.31835938 C12.94773954 59.46064507 -1.44890308 75.55445508 -13.34716797 92.93408203 C-14.50017546 94.61198807 -15.71359945 96.24808194 -16.9375 97.875 C-17.5975 97.875 -18.2575 97.875 -18.9375 97.875 C-21.22112395 78.86537359 -22.49316806 60.96476391 -19.9375 41.875 C-19.81246094 40.69421875 -19.68742187 39.5134375 -19.55859375 38.296875 C-18.08823572 26.71974019 -12.83081019 8.90501138 -3.87890625 1.07421875 C-1.9375 -0.125 -1.9375 -0.125 0 0 Z " fill="#03AD50" transform="translate(65.9375,113.125)"/>
<path d="M0 0 C0 0.66 0 1.32 0 2 C-0.33 2.33 -0.66 2.66 -1 3 C-0.52433594 3.29390625 -0.04867187 3.5878125 0.44140625 3.890625 C5.50949935 7.13868467 10.21022719 10.70917627 14.875 14.5 C22.9823176 21.08004784 31.37816488 27.23607172 39.80859375 33.39306641 C44.57128975 36.8854979 49.28547892 40.44293619 54 44 C51.94785575 46.05214425 50.59255481 46.73397712 47.95703125 47.84765625 C47.13702637 48.20158447 46.31702148 48.5555127 45.47216797 48.92016602 C44.59447754 49.29713623 43.71678711 49.67410645 42.8125 50.0625 C35.36557707 53.31842959 28.35672012 56.89902037 21.49536133 61.25610352 C17.16686616 64 17.16686616 64 15 64 C14.34 63.01 13.68 62.02 13 61 C6.79738301 55.43903304 -0.10160692 50.78492206 -7.01953125 46.17578125 C-9.99735062 44.00193408 -12.41500866 41.61878207 -15 39 C-17.20842021 37.36768941 -19.47895754 35.91103043 -21.79296875 34.43359375 C-24 33 -24 33 -25.73828125 31.66015625 C-27.38535488 30.33422905 -27.38535488 30.33422905 -30 29 C-32.84575944 29.60264182 -32.84575944 29.60264182 -35 31 C-31.52695304 20.76269404 -12.14274956 0 0 0 Z " fill="#35B450" transform="translate(96,85)"/>
<path d="M0 0 C2.17345009 1.42481728 4.03303681 2.82902625 6 4.5 C7.24453612 5.51623346 8.49073703 6.53043034 9.73828125 7.54296875 C10.41713379 8.09774902 11.09598633 8.6525293 11.79541016 9.22412109 C15.86364438 12.50123468 20.02840134 15.65207218 24.1875 18.8125 C25.0846875 19.49570313 25.981875 20.17890625 26.90625 20.8828125 C33.49564213 25.88848807 40.14418725 30.80879403 46.81933594 35.69921875 C54.69609767 41.48274009 62.45700937 47.41508305 70.21875 53.3515625 C74.1058065 56.32338832 78.01385586 59.26419088 81.9375 62.1875 C85.72790996 65.01810658 89.41535178 67.91321958 93 71 C88.09733811 75.27006036 82.43059918 79.86805388 75.75 80.125 C72.2698678 78.70130955 70.59895265 76.71983417 68 74 C66.62585854 73.03098391 65.22737896 72.09600123 63.8125 71.1875 C59.53611409 68.42125697 55.61991372 65.35300433 51.671875 62.140625 C47.81473953 59.05040536 43.84724233 56.11457166 39.8828125 53.1640625 C37.32982917 51.24759534 34.81608843 49.29269015 32.3125 47.3125 C28.65947187 44.44841987 24.87055819 41.87327989 20.98828125 39.33203125 C18.53794984 37.69045362 16.27949366 35.87035378 14 34 C12.77399483 33.07910924 11.54445166 32.16292036 10.3125 31.25 C7.21401608 28.94064307 4.19104856 26.55644407 1.1875 24.125 C-7.18284497 16.22036382 -7.18284497 16.22036382 -17 12 C-17.33 11.01 -17.66 10.02 -18 9 C-15.94709753 7.48512028 -13.88437446 5.98853116 -11.8125 4.5 C-11.23435547 4.07074219 -10.65621094 3.64148438 -10.06054688 3.19921875 C-4.20860586 -0.96656977 -4.20860586 -0.96656977 0 0 Z " fill="#22B250" transform="translate(143,148)"/>
<path d="M0 0 C0.66 0 1.32 0 2 0 C3.63770191 4.91310572 3.19070402 9.97969953 3.1875 15.125 C3.18741943 16.3210083 3.18733887 17.5170166 3.18725586 18.74926758 C2.94568319 57.44920919 2.94568319 57.44920919 -2 68 C-4.51896049 66.880462 -6.39734655 65.68018448 -8.5625 63.9375 C-10.92026019 61.83615651 -10.92026019 61.83615651 -14 61 C-14.33 60.01 -14.66 59.02 -15 58 C-15.99 57.67 -16.98 57.34 -18 57 C-18 56.34 -18 55.68 -18 55 C-18.928125 54.731875 -19.85625 54.46375 -20.8125 54.1875 C-23.85688595 53.053317 -24.89711622 52.30315842 -27 50 C-28.485 49.505 -28.485 49.505 -30 49 C-31.03505438 48.03632868 -32.03267889 47.03164425 -33 46 C-34.13397215 44.96600683 -35.2801948 43.94530921 -36.4375 42.9375 C-37.01371094 42.43089844 -37.58992188 41.92429688 -38.18359375 41.40234375 C-39.96197249 39.93522138 -39.96197249 39.93522138 -42.06640625 38.97265625 C-44.90401247 37.54525433 -46.76566056 35.23433944 -49 33 C-51.16620544 31.70480005 -51.16620544 31.70480005 -53 31 C-52.835 30.401875 -52.67 29.80375 -52.5 29.1875 C-51.8885876 26.88655664 -51.8885876 26.88655664 -52 24 C-48.25765075 22.89667791 -44.52426089 21.8707275 -40.72265625 20.9921875 C-26.78379085 17.69982391 -14.4407976 12.73869967 -3 4 C-2.67 3.34 -2.34 2.68 -2 2 C-1.34 2 -0.68 2 0 2 C0 1.34 0 0.68 0 0 Z " fill="#83C452" transform="translate(322,39)"/>
<path d="M0 0 C5.03287649 2.72081902 9.35773068 5.72570161 13.75 9.375 C25.47151132 18.93272392 37.78212684 27.73132347 50.06640625 36.546875 C52 38 52 38 54 40 C53.34 40 52.68 40 52 40 C52 40.99 52 41.98 52 43 C49.71125827 44.33858524 47.41930344 45.67101014 45.125 47 C44.47402344 47.3815625 43.82304688 47.763125 43.15234375 48.15625 C38.2265625 51 38.2265625 51 36 51 C35.34 50.01 34.68 49.02 34 48 C27.79738301 42.43903304 20.89839308 37.78492206 13.98046875 33.17578125 C11.00264938 31.00193408 8.58499134 28.61878207 6 26 C3.79157979 24.36768941 1.52104246 22.91103043 -0.79296875 21.43359375 C-3 20 -3 20 -4.73828125 18.66015625 C-6.38535488 17.33422905 -6.38535488 17.33422905 -9 16 C-11.84575944 16.60264182 -11.84575944 16.60264182 -14 18 C-12.59787748 13.77089533 -10.58624819 11.12217785 -7.5625 7.875 C-6.78003906 7.02679688 -5.99757813 6.17859375 -5.19140625 5.3046875 C-3.48442037 3.50946171 -1.76559133 1.73720562 0 0 Z " fill="#23B250" transform="translate(75,98)"/>
<path d="M0 0 C3.30536212 1.03442919 5.28579666 2.62013361 7.93359375 4.83984375 C8.805 5.56171875 9.67640625 6.28359375 10.57421875 7.02734375 C11.6342102 7.93815122 12.69537512 8.85162512 13.68359375 9.83984375 C18.42069014 13.4828411 23.25451625 17.00029592 28.07495117 20.53173828 C36.79907199 26.92664407 45.43652758 33.42683848 54.02905273 39.99731445 C59.47571165 44.16163014 64.94172037 48.29785652 70.43359375 52.40234375 C85.54830543 63.70455543 85.54830543 63.70455543 87.68359375 65.83984375 C88.86427482 66.70341144 90.05284718 67.55622345 91.24609375 68.40234375 C91.88675781 68.85738281 92.52742188 69.31242187 93.1875 69.78125 C93.92806641 70.30525391 93.92806641 70.30525391 94.68359375 70.83984375 C94.35359375 71.49984375 94.02359375 72.15984375 93.68359375 72.83984375 C90.12666698 73.6904132 88.19088797 74.00894182 84.68359375 72.83984375 C83.53570835 71.65819701 82.38910681 70.47526784 81.25 69.28515625 C79.44871928 67.62312665 77.5551005 66.35643806 75.49609375 65.02734375 C71.21970784 62.26110072 67.30350747 59.19284808 63.35546875 55.98046875 C59.49833328 52.89024911 55.53083608 49.95441541 51.56640625 47.00390625 C49.01342292 45.08743909 46.49968218 43.1325339 43.99609375 41.15234375 C40.34306562 38.28826362 36.55415194 35.71312364 32.671875 33.171875 C30.22154359 31.53029737 27.96308741 29.71019753 25.68359375 27.83984375 C24.45758858 26.91895299 23.22804541 26.00276411 21.99609375 25.08984375 C18.89760983 22.78048682 15.87464231 20.39628782 12.87109375 17.96484375 C4.50074878 10.06020757 4.50074878 10.06020757 -5.31640625 5.83984375 C-5.64640625 4.84984375 -5.97640625 3.85984375 -6.31640625 2.83984375 C-3.02359932 -0.20905156 -3.02359932 -0.20905156 0 0 Z " fill="#12B150" transform="translate(131.31640625,154.16015625)"/>
<path d="M0 0 C2.93666108 1.37380458 5.44219958 2.96141145 8.02734375 4.9140625 C8.80972412 5.50276123 9.59210449 6.09145996 10.39819336 6.69799805 C11.23616455 7.33390869 12.07413574 7.96981934 12.9375 8.625 C13.80834229 9.28218018 14.67918457 9.93936035 15.57641602 10.61645508 C18.38741589 12.74019345 21.1941962 14.86940239 24 17 C24.96035156 17.72848145 25.92070313 18.45696289 26.91015625 19.20751953 C44.83981558 32.81463482 44.83981558 32.81463482 50 37 C49.8125 38.875 49.8125 38.875 49 41 C46.4375 42.25 46.4375 42.25 44 43 C43.34 42.01 42.68 41.02 42 40 C35.79738301 34.43903304 28.89839308 29.78492206 21.98046875 25.17578125 C19.00264938 23.00193408 16.58499134 20.61878207 14 18 C11.79157979 16.36768941 9.52104246 14.91103043 7.20703125 13.43359375 C5 12 5 12 3.26171875 10.66015625 C1.61464512 9.33422905 1.61464512 9.33422905 -1 8 C-3.84575944 8.60264182 -3.84575944 8.60264182 -6 10 C-4.6302836 6.00499382 -2.74277578 3.19990508 0 0 Z " fill="#13B150" transform="translate(67,106)"/>
<path d="M0 0 C0 3 0 3 -2.29492188 5.63549805 C-3.3451977 6.6852984 -4.40374234 7.72686669 -5.46875 8.76171875 C-6.02365112 9.31237503 -6.57855225 9.86303131 -7.15026855 10.43037415 C-8.92660687 12.18990125 -10.7130848 13.93872165 -12.5 15.6875 C-13.70510885 16.87756521 -14.90954483 18.06831223 -16.11328125 19.25976562 C-19.06776708 22.18114979 -22.03138969 25.09297256 -25 28 C-25.66 27.67 -26.32 27.34 -27 27 C-26.51789063 26.52949219 -26.03578125 26.05898437 -25.5390625 25.57421875 C-24.90742187 24.95160156 -24.27578125 24.32898438 -23.625 23.6875 C-22.68527344 22.76517578 -22.68527344 22.76517578 -21.7265625 21.82421875 C-19.81913393 19.91187472 -19.81913393 19.91187472 -18 17 C-17.34 17 -16.68 17 -16 17 C-15.34 15.68 -14.68 14.36 -14 13 C-13.34 13 -12.68 13 -12 13 C-11.7525 12.41476563 -11.505 11.82953125 -11.25 11.2265625 C-9.81592202 8.67211111 -8.24285666 7.24679581 -6 5.375 C-3.92339664 3.6266832 -1.92037235 1.92037235 0 0 Z " fill="#1EA64D" transform="translate(101,175)"/>
<path d="M0 0 C0.33 0 0.66 0 1 0 C0.85764543 1.72945653 0.71095618 3.45855654 0.5625 5.1875 C0.48128906 6.15042969 0.40007812 7.11335938 0.31640625 8.10546875 C0.02333849 10.78649602 -0.42703754 13.3662986 -1 16 C-1.99 15.34 -2.98 14.68 -4 14 C-3.79503906 13.32453125 -3.59007812 12.6490625 -3.37890625 11.953125 C-3.10949219 11.06109375 -2.84007812 10.1690625 -2.5625 9.25 C-2.16224609 7.92742187 -2.16224609 7.92742187 -1.75390625 6.578125 C-1.11531506 4.39434165 -0.53224167 2.21164502 0 0 Z " fill="#1E8A45" transform="translate(320,103)"/>
<path d="M0 0 C-0.33 0.99 -0.66 1.98 -1 3 C-2.11375 3.12375 -3.2275 3.2475 -4.375 3.375 C-8.03103677 3.6465813 -8.03103677 3.6465813 -10 6 C-10 5.34 -10 4.68 -10 4 C-11.65 4 -13.3 4 -15 4 C-15 3.67 -15 3.34 -15 3 C-13.0636296 2.49564306 -11.12585854 1.99666126 -9.1875 1.5 C-8.10855469 1.2215625 -7.02960938 0.943125 -5.91796875 0.65625 C-3 0 -3 0 0 0 Z " fill="#5AB44F" transform="translate(292,58)"/>
<path d="M0 0 C0.33 1.32 0.66 2.64 1 4 C-6.425 3.01 -6.425 3.01 -14 2 C-14 1.67 -14 1.34 -14 1 C-9.27616037 0.34843591 -4.78025483 -0.11950637 0 0 Z " fill="#58B44F" transform="translate(270,63)"/>
</svg>
